solid OpenSCAD_Model
  facet normal 0.7051619993942797 0.074115512684751 -0.7051619993942797
    outer loop
      vertex 5 0 0
      vertex 14.672214011007085 3.1186753622663903 10
      vertex 15 0 10
    endloop
  endfacet
  facet normal 0.7051619993942799 0.074115512684751 -0.7051619993942797
    outer loop
      vertex 14.672214011007085 3.1186753622663903 10
      vertex 5 0 0
      vertex 4.8907380036690284 1.0395584540887968 0
    endloop
  endfacet
  facet normal 0.6743430362780564 0.21910733450424189 -0.7051619993942796
    outer loop
      vertex 4.8907380036690284 1.0395584540887968 0
      vertex 13.703181864639014 6.101049646137003 10
      vertex 14.672214011007085 3.1186753622663903 10
    endloop
  endfacet
  facet normal 0.6743430362780563 0.21910733450424286 -0.7051619993942795
    outer loop
      vertex 13.703181864639014 6.101049646137003 10
      vertex 4.8907380036690284 1.0395584540887968 0
      vertex 4.567727288213004 2.033683215379001 0
    endloop
  endfacet
  facet normal 0.6140520466195812 0.354523114412256 -0.7051619993942796
    outer loop
      vertex 4.567727288213004 2.033683215379001 0
      vertex 12.135254915624213 8.816778784387097 10
      vertex 13.703181864639014 6.101049646137003 10
    endloop
  endfacet
  facet normal 0.6140520466195812 0.35452311441225604 -0.7051619993942797
    outer loop
      vertex 12.135254915624213 8.816778784387097 10
      vertex 4.567727288213004 2.033683215379001 0
      vertex 4.045084971874737 2.938926261462366 0
    endloop
  endfacet
  facet normal 0.526924035975196 0.4744445330298075 -0.7051619993942799
    outer loop
      vertex 4.045084971874737 2.938926261462366 0
      vertex 10.036959095382873 11.147172382160914 10
      vertex 12.135254915624213 8.816778784387097 10
    endloop
  endfacet
  facet normal 0.5269240359751958 0.47444453302980744 -0.70516199939428
    outer loop
      vertex 10.036959095382873 11.147172382160914 10
      vertex 4.045084971874737 2.938926261462366 0
      vertex 3.345653031794291 3.715724127386971 0
    endloop
  endfacet
  facet normal 0.41676691649664177 0.573630448916498 -0.7051619993942799
    outer loop
      vertex 3.345653031794291 3.715724127386971 0
      vertex 7.5 12.990381056766578 10
      vertex 10.036959095382873 11.147172382160914 10
    endloop
  endfacet
  facet normal 0.4167669164966416 0.5736304489164982 -0.7051619993942797
    outer loop
      vertex 7.5 12.990381056766578 10
      vertex 3.345653031794291 3.715724127386971 0
      vertex 2.5 4.330127018922193 0
    endloop
  endfacet
  facet normal 0.28839508289763766 0.6477459616012489 -0.7051619993942797
    outer loop
      vertex 2.5 4.330127018922193 0
      vertex 4.635254915624211 14.265847744427303 10
      vertex 7.5 12.990381056766578 10
    endloop
  endfacet
  facet normal 0.2883950828976366 0.647745961601249 -0.7051619993942799
    outer loop
      vertex 4.635254915624211 14.265847744427303 10
      vertex 2.5 4.330127018922193 0
      vertex 1.545084971874737 4.755282581475767 0
    endloop
  endfacet
  facet normal 0.14741900030285976 0.6935518675340491 -0.7051619993942798
    outer loop
      vertex 1.545084971874737 4.755282581475767 0
      vertex 1.567926949014802 14.9178284305241 10
      vertex 4.635254915624211 14.265847744427303 10
    endloop
  endfacet
  facet normal 0.14741900030285943 0.6935518675340492 -0.7051619993942798
    outer loop
      vertex 1.567926949014802 14.9178284305241 10
      vertex 1.545084971874737 4.755282581475767 0
      vertex 0.5226423163382674 4.972609476841367 0
    endloop
  endfacet
  facet normal 0 0.7090462288245117 -0.7051619993942798
    outer loop
      vertex 0.5226423163382674 4.972609476841367 0
      vertex -1.567926949014802 14.9178284305241 10
      vertex 1.567926949014802 14.9178284305241 10
    endloop
  endfacet
  facet normal 0 0.7090462288245116 -0.7051619993942799
    outer loop
      vertex -1.567926949014802 14.9178284305241 10
      vertex 0.5226423163382674 4.972609476841367 0
      vertex -0.5226423163382674 4.972609476841367 0
    endloop
  endfacet
  facet normal -0.14741900030286045 0.693551867534049 -0.7051619993942797
    outer loop
      vertex -1.545084971874737 4.755282581475767 0
      vertex -1.567926949014802 14.9178284305241 10
      vertex -0.5226423163382674 4.972609476841367 0
    endloop
  endfacet
  facet normal -0.14741900030286026 0.693551867534049 -0.7051619993942797
    outer loop
      vertex -1.567926949014802 14.9178284305241 10
      vertex -1.545084971874737 4.755282581475767 0
      vertex -4.635254915624211 14.265847744427303 10
    endloop
  endfacet
  facet normal -0.28839508289763754 0.6477459616012489 -0.7051619993942798
    outer loop
      vertex -2.5 4.330127018922193 0
      vertex -4.635254915624211 14.265847744427303 10
      vertex -1.545084971874737 4.755282581475767 0
    endloop
  endfacet
  facet normal -0.28839508289763766 0.6477459616012489 -0.7051619993942797
    outer loop
      vertex -4.635254915624211 14.265847744427303 10
      vertex -2.5 4.330127018922193 0
      vertex -7.5 12.990381056766578 10
    endloop
  endfacet
  facet normal -0.41676691649664205 0.5736304489164977 -0.7051619993942797
    outer loop
      vertex -3.345653031794291 3.715724127386971 0
      vertex -7.5 12.990381056766578 10
      vertex -2.5 4.330127018922193 0
    endloop
  endfacet
  facet normal -0.41676691649664205 0.5736304489164978 -0.7051619993942797
    outer loop
      vertex -7.5 12.990381056766578 10
      vertex -3.345653031794291 3.715724127386971 0
      vertex -10.036959095382873 11.147172382160914 10
    endloop
  endfacet
  facet normal -0.5269240359751962 0.47444453302980744 -0.7051619993942798
    outer loop
      vertex -4.045084971874737 2.938926261462366 0
      vertex -10.036959095382873 11.147172382160914 10
      vertex -3.345653031794291 3.715724127386971 0
    endloop
  endfacet
  facet normal -0.5269240359751961 0.47444453302980744 -0.7051619993942798
    outer loop
      vertex -10.036959095382873 11.147172382160914 10
      vertex -4.045084971874737 2.938926261462366 0
      vertex -12.135254915624213 8.816778784387097 10
    endloop
  endfacet
  facet normal -0.6140520466195813 0.3545231144122556 -0.7051619993942798
    outer loop
      vertex -4.567727288213004 2.033683215379001 0
      vertex -12.135254915624213 8.816778784387097 10
      vertex -4.045084971874737 2.938926261462366 0
    endloop
  endfacet
  facet normal -0.6140520466195812 0.35452311441225565 -0.7051619993942797
    outer loop
      vertex -12.135254915624213 8.816778784387097 10
      vertex -4.567727288213004 2.033683215379001 0
      vertex -13.703181864639014 6.101049646137003 10
    endloop
  endfacet
  facet normal -0.6743430362780563 0.2191073345042421 -0.7051619993942798
    outer loop
      vertex -4.8907380036690284 1.0395584540887968 0
      vertex -13.703181864639014 6.101049646137003 10
      vertex -4.567727288213004 2.033683215379001 0
    endloop
  endfacet
  facet normal -0.6743430362780564 0.21910733450424194 -0.7051619993942798
    outer loop
      vertex -13.703181864639014 6.101049646137003 10
      vertex -4.8907380036690284 1.0395584540887968 0
      vertex -14.672214011007085 3.1186753622663903 10
    endloop
  endfacet
  facet normal -0.7051619993942798 0.07411551268475101 -0.7051619993942798
    outer loop
      vertex -15 0 10
      vertex -4.8907380036690284 1.0395584540887968 0
      vertex -5 0 0
    endloop
  endfacet
  facet normal -0.7051619993942798 0.07411551268475101 -0.7051619993942799
    outer loop
      vertex -4.8907380036690284 1.0395584540887968 0
      vertex -15 0 10
      vertex -14.672214011007085 3.1186753622663903 10
    endloop
  endfacet
  facet normal -0.7051619993942797 -0.074115512684751 -0.7051619993942798
    outer loop
      vertex -4.8907380036690284 -1.0395584540887968 0
      vertex -15 0 10
      vertex -5 0 0
    endloop
  endfacet
  facet normal -0.7051619993942797 -0.074115512684751 -0.7051619993942797
    outer loop
      vertex -15 0 10
      vertex -4.8907380036690284 -1.0395584540887968 0
      vertex -14.672214011007085 -3.1186753622663903 10
    endloop
  endfacet
  facet normal -0.6743430362780563 -0.21910733450424286 -0.7051619993942795
    outer loop
      vertex -13.703181864639014 -6.101049646137003 10
      vertex -4.8907380036690284 -1.0395584540887968 0
      vertex -4.567727288213004 -2.033683215379001 0
    endloop
  endfacet
  facet normal -0.6743430362780564 -0.21910733450424189 -0.7051619993942796
    outer loop
      vertex -4.8907380036690284 -1.0395584540887968 0
      vertex -13.703181864639014 -6.101049646137003 10
      vertex -14.672214011007085 -3.1186753622663903 10
    endloop
  endfacet
  facet normal -0.6140520466195812 -0.35452311441225604 -0.7051619993942797
    outer loop
      vertex -12.135254915624213 -8.816778784387097 10
      vertex -4.567727288213004 -2.033683215379001 0
      vertex -4.045084971874737 -2.938926261462366 0
    endloop
  endfacet
  facet normal -0.6140520466195812 -0.354523114412256 -0.7051619993942796
    outer loop
      vertex -4.567727288213004 -2.033683215379001 0
      vertex -12.135254915624213 -8.816778784387097 10
      vertex -13.703181864639014 -6.101049646137003 10
    endloop
  endfacet
  facet normal -0.5269240359751958 -0.47444453302980744 -0.70516199939428
    outer loop
      vertex -10.036959095382873 -11.147172382160914 10
      vertex -4.045084971874737 -2.938926261462366 0
      vertex -3.345653031794291 -3.715724127386971 0
    endloop
  endfacet
  facet normal -0.526924035975196 -0.4744445330298075 -0.7051619993942799
    outer loop
      vertex -4.045084971874737 -2.938926261462366 0
      vertex -10.036959095382873 -11.147172382160914 10
      vertex -12.135254915624213 -8.816778784387097 10
    endloop
  endfacet
  facet normal -0.4167669164966416 -0.5736304489164982 -0.7051619993942797
    outer loop
      vertex -7.5 -12.990381056766578 10
      vertex -3.345653031794291 -3.715724127386971 0
      vertex -2.5 -4.330127018922193 0
    endloop
  endfacet
  facet normal -0.41676691649664177 -0.573630448916498 -0.7051619993942799
    outer loop
      vertex -3.345653031794291 -3.715724127386971 0
      vertex -7.5 -12.990381056766578 10
      vertex -10.036959095382873 -11.147172382160914 10
    endloop
  endfacet
  facet normal -0.2883950828976366 -0.647745961601249 -0.7051619993942799
    outer loop
      vertex -4.635254915624211 -14.265847744427303 10
      vertex -2.5 -4.330127018922193 0
      vertex -1.545084971874737 -4.755282581475767 0
    endloop
  endfacet
  facet normal -0.28839508289763766 -0.6477459616012489 -0.7051619993942797
    outer loop
      vertex -2.5 -4.330127018922193 0
      vertex -4.635254915624211 -14.265847744427303 10
      vertex -7.5 -12.990381056766578 10
    endloop
  endfacet
  facet normal -0.14741900030285943 -0.6935518675340492 -0.7051619993942798
    outer loop
      vertex -1.567926949014802 -14.9178284305241 10
      vertex -1.545084971874737 -4.755282581475767 0
      vertex -0.5226423163382674 -4.972609476841367 0
    endloop
  endfacet
  facet normal -0.14741900030285976 -0.6935518675340491 -0.7051619993942798
    outer loop
      vertex -1.545084971874737 -4.755282581475767 0
      vertex -1.567926949014802 -14.9178284305241 10
      vertex -4.635254915624211 -14.265847744427303 10
    endloop
  endfacet
  facet normal 0 -0.7090462288245117 -0.7051619993942798
    outer loop
      vertex -0.5226423163382674 -4.972609476841367 0
      vertex 1.567926949014802 -14.9178284305241 10
      vertex -1.567926949014802 -14.9178284305241 10
    endloop
  endfacet
  facet normal 0 -0.7090462288245116 -0.7051619993942799
    outer loop
      vertex 1.567926949014802 -14.9178284305241 10
      vertex -0.5226423163382674 -4.972609476841367 0
      vertex 0.5226423163382674 -4.972609476841367 0
    endloop
  endfacet
  facet normal 0.14741900030286026 -0.693551867534049 -0.7051619993942797
    outer loop
      vertex 1.567926949014802 -14.9178284305241 10
      vertex 1.545084971874737 -4.755282581475767 0
      vertex 4.635254915624211 -14.265847744427303 10
    endloop
  endfacet
  facet normal 0.14741900030286045 -0.693551867534049 -0.7051619993942797
    outer loop
      vertex 1.545084971874737 -4.755282581475767 0
      vertex 1.567926949014802 -14.9178284305241 10
      vertex 0.5226423163382674 -4.972609476841367 0
    endloop
  endfacet
  facet normal 0.28839508289763766 -0.6477459616012489 -0.7051619993942797
    outer loop
      vertex 4.635254915624211 -14.265847744427303 10
      vertex 2.5 -4.330127018922193 0
      vertex 7.5 -12.990381056766578 10
    endloop
  endfacet
  facet normal 0.28839508289763754 -0.6477459616012489 -0.7051619993942798
    outer loop
      vertex 2.5 -4.330127018922193 0
      vertex 4.635254915624211 -14.265847744427303 10
      vertex 1.545084971874737 -4.755282581475767 0
    endloop
  endfacet
  facet normal 0.41676691649664205 -0.5736304489164978 -0.7051619993942797
    outer loop
      vertex 7.5 -12.990381056766578 10
      vertex 3.345653031794291 -3.715724127386971 0
      vertex 10.036959095382873 -11.147172382160914 10
    endloop
  endfacet
  facet normal 0.41676691649664205 -0.5736304489164977 -0.7051619993942797
    outer loop
      vertex 3.345653031794291 -3.715724127386971 0
      vertex 7.5 -12.990381056766578 10
      vertex 2.5 -4.330127018922193 0
    endloop
  endfacet
  facet normal 0.5269240359751961 -0.47444453302980744 -0.7051619993942798
    outer loop
      vertex 10.036959095382873 -11.147172382160914 10
      vertex 4.045084971874737 -2.938926261462366 0
      vertex 12.135254915624213 -8.816778784387097 10
    endloop
  endfacet
  facet normal 0.5269240359751962 -0.47444453302980744 -0.7051619993942798
    outer loop
      vertex 4.045084971874737 -2.938926261462366 0
      vertex 10.036959095382873 -11.147172382160914 10
      vertex 3.345653031794291 -3.715724127386971 0
    endloop
  endfacet
  facet normal 0.6140520466195812 -0.35452311441225565 -0.7051619993942797
    outer loop
      vertex 12.135254915624213 -8.816778784387097 10
      vertex 4.567727288213004 -2.033683215379001 0
      vertex 13.703181864639014 -6.101049646137003 10
    endloop
  endfacet
  facet normal 0.6140520466195813 -0.3545231144122556 -0.7051619993942798
    outer loop
      vertex 4.567727288213004 -2.033683215379001 0
      vertex 12.135254915624213 -8.816778784387097 10
      vertex 4.045084971874737 -2.938926261462366 0
    endloop
  endfacet
  facet normal 0.6743430362780564 -0.21910733450424194 -0.7051619993942798
    outer loop
      vertex 13.703181864639014 -6.101049646137003 10
      vertex 4.8907380036690284 -1.0395584540887968 0
      vertex 14.672214011007085 -3.1186753622663903 10
    endloop
  endfacet
  facet normal 0.6743430362780563 -0.2191073345042421 -0.7051619993942798
    outer loop
      vertex 4.8907380036690284 -1.0395584540887968 0
      vertex 13.703181864639014 -6.101049646137003 10
      vertex 4.567727288213004 -2.033683215379001 0
    endloop
  endfacet
  facet normal 0.7051619993942797 -0.074115512684751 -0.7051619993942797
    outer loop
      vertex 14.672214011007085 -3.1186753622663903 10
      vertex 5 0 0
      vertex 15 0 10
    endloop
  endfacet
  facet normal 0.7051619993942797 -0.074115512684751 -0.7051619993942798
    outer loop
      vertex 5 0 0
      vertex 14.672214011007085 -3.1186753622663903 10
      vertex 4.8907380036690284 -1.0395584540887968 0
    endloop
  endfacet
  facet normal 0 0 -1
    outer loop
      vertex 4.8907380036690284 -1.0395584540887968 0
      vertex 4.8907380036690284 1.0395584540887968 0
      vertex 5 0 0
    endloop
  endfacet
  facet normal 0 0 -1
    outer loop
      vertex 4.567727288213004 -2.033683215379001 0
      vertex 4.8907380036690284 1.0395584540887968 0
      vertex 4.8907380036690284 -1.0395584540887968 0
    endloop
  endfacet
  facet normal 0 0 -1
    outer loop
      vertex 4.567727288213004 -2.033683215379001 0
      vertex 4.567727288213004 2.033683215379001 0
      vertex 4.8907380036690284 1.0395584540887968 0
    endloop
  endfacet
  facet normal 0 0 -1
    outer loop
      vertex 4.045084971874737 -2.938926261462366 0
      vertex 4.567727288213004 2.033683215379001 0
      vertex 4.567727288213004 -2.033683215379001 0
    endloop
  endfacet
  facet normal 0 0 -1
    outer loop
      vertex 4.045084971874737 -2.938926261462366 0
      vertex 4.045084971874737 2.938926261462366 0
      vertex 4.567727288213004 2.033683215379001 0
    endloop
  endfacet
  facet normal 0 0 -1
    outer loop
      vertex 3.345653031794291 -3.715724127386971 0
      vertex 4.045084971874737 2.938926261462366 0
      vertex 4.045084971874737 -2.938926261462366 0
    endloop
  endfacet
  facet normal 0 0 -1
    outer loop
      vertex 3.345653031794291 -3.715724127386971 0
      vertex 3.345653031794291 3.715724127386971 0
      vertex 4.045084971874737 2.938926261462366 0
    endloop
  endfacet
  facet normal 0 0 -1
    outer loop
      vertex 2.5 -4.330127018922193 0
      vertex 3.345653031794291 3.715724127386971 0
      vertex 3.345653031794291 -3.715724127386971 0
    endloop
  endfacet
  facet normal 0 0 -1
    outer loop
      vertex 2.5 -4.330127018922193 0
      vertex 2.5 4.330127018922193 0
      vertex 3.345653031794291 3.715724127386971 0
    endloop
  endfacet
  facet normal 0 0 -1
    outer loop
      vertex 1.545084971874737 -4.755282581475767 0
      vertex 2.5 4.330127018922193 0
      vertex 2.5 -4.330127018922193 0
    endloop
  endfacet
  facet normal 0 0 -1
    outer loop
      vertex 1.545084971874737 -4.755282581475767 0
      vertex 1.545084971874737 4.755282581475767 0
      vertex 2.5 4.330127018922193 0
    endloop
  endfacet
  facet normal 0 0 -1
    outer loop
      vertex 0.5226423163382674 -4.972609476841367 0
      vertex 1.545084971874737 4.755282581475767 0
      vertex 1.545084971874737 -4.755282581475767 0
    endloop
  endfacet
  facet normal 0 0 -1
    outer loop
      vertex 0.5226423163382674 -4.972609476841367 0
      vertex 0.5226423163382674 4.972609476841367 0
      vertex 1.545084971874737 4.755282581475767 0
    endloop
  endfacet
  facet normal 0 0 -1
    outer loop
      vertex -0.5226423163382674 -4.972609476841367 0
      vertex 0.5226423163382674 4.972609476841367 0
      vertex 0.5226423163382674 -4.972609476841367 0
    endloop
  endfacet
  facet normal 0 0 -1
    outer loop
      vertex -0.5226423163382674 -4.972609476841367 0
      vertex -0.5226423163382674 4.972609476841367 0
      vertex 0.5226423163382674 4.972609476841367 0
    endloop
  endfacet
  facet normal 0 0 -1
    outer loop
      vertex -1.545084971874737 -4.755282581475767 0
      vertex -0.5226423163382674 4.972609476841367 0
      vertex -0.5226423163382674 -4.972609476841367 0
    endloop
  endfacet
  facet normal 0 0 -1
    outer loop
      vertex -1.545084971874737 -4.755282581475767 0
      vertex -1.545084971874737 4.755282581475767 0
      vertex -0.5226423163382674 4.972609476841367 0
    endloop
  endfacet
  facet normal 0 0 -1
    outer loop
      vertex -2.5 -4.330127018922193 0
      vertex -1.545084971874737 4.755282581475767 0
      vertex -1.545084971874737 -4.755282581475767 0
    endloop
  endfacet
  facet normal 0 0 -1
    outer loop
      vertex -2.5 -4.330127018922193 0
      vertex -2.5 4.330127018922193 0
      vertex -1.545084971874737 4.755282581475767 0
    endloop
  endfacet
  facet normal 0 0 -1
    outer loop
      vertex -3.345653031794291 -3.715724127386971 0
      vertex -2.5 4.330127018922193 0
      vertex -2.5 -4.330127018922193 0
    endloop
  endfacet
  facet normal 0 0 -1
    outer loop
      vertex -3.345653031794291 -3.715724127386971 0
      vertex -3.345653031794291 3.715724127386971 0
      vertex -2.5 4.330127018922193 0
    endloop
  endfacet
  facet normal 0 0 -1
    outer loop
      vertex -4.045084971874737 -2.938926261462366 0
      vertex -3.345653031794291 3.715724127386971 0
      vertex -3.345653031794291 -3.715724127386971 0
    endloop
  endfacet
  facet normal 0 0 -1
    outer loop
      vertex -4.045084971874737 -2.938926261462366 0
      vertex -4.045084971874737 2.938926261462366 0
      vertex -3.345653031794291 3.715724127386971 0
    endloop
  endfacet
  facet normal 0 0 -1
    outer loop
      vertex -4.567727288213004 -2.033683215379001 0
      vertex -4.045084971874737 2.938926261462366 0
      vertex -4.045084971874737 -2.938926261462366 0
    endloop
  endfacet
  facet normal 0 0 -1
    outer loop
      vertex -4.567727288213004 -2.033683215379001 0
      vertex -4.567727288213004 2.033683215379001 0
      vertex -4.045084971874737 2.938926261462366 0
    endloop
  endfacet
  facet normal 0 0 -1
    outer loop
      vertex -4.8907380036690284 -1.0395584540887968 0
      vertex -4.567727288213004 2.033683215379001 0
      vertex -4.567727288213004 -2.033683215379001 0
    endloop
  endfacet
  facet normal 0 0 -1
    outer loop
      vertex -4.8907380036690284 -1.0395584540887968 0
      vertex -4.8907380036690284 1.0395584540887968 0
      vertex -4.567727288213004 2.033683215379001 0
    endloop
  endfacet
  facet normal 0 0 -1
    outer loop
      vertex -4.8907380036690284 1.0395584540887968 0
      vertex -4.8907380036690284 -1.0395584540887968 0
      vertex -5 0 0
    endloop
  endfacet
  facet normal 0 0 1
    outer loop
      vertex 14.672214011007085 3.1186753622663903 10
      vertex 14.672214011007085 -3.1186753622663903 10
      vertex 15 0 10
    endloop
  endfacet
  facet normal 0 0 1
    outer loop
      vertex 13.703181864639014 6.101049646137003 10
      vertex 14.672214011007085 -3.1186753622663903 10
      vertex 14.672214011007085 3.1186753622663903 10
    endloop
  endfacet
  facet normal 0 0 1
    outer loop
      vertex 13.703181864639014 6.101049646137003 10
      vertex 13.703181864639014 -6.101049646137003 10
      vertex 14.672214011007085 -3.1186753622663903 10
    endloop
  endfacet
  facet normal 0 0 1
    outer loop
      vertex 12.135254915624213 8.816778784387097 10
      vertex 13.703181864639014 -6.101049646137003 10
      vertex 13.703181864639014 6.101049646137003 10
    endloop
  endfacet
  facet normal 0 0 1
    outer loop
      vertex 12.135254915624213 8.816778784387097 10
      vertex 12.135254915624213 -8.816778784387097 10
      vertex 13.703181864639014 -6.101049646137003 10
    endloop
  endfacet
  facet normal 0 0 1
    outer loop
      vertex 10.036959095382873 11.147172382160914 10
      vertex 12.135254915624213 -8.816778784387097 10
      vertex 12.135254915624213 8.816778784387097 10
    endloop
  endfacet
  facet normal 0 0 1
    outer loop
      vertex 10.036959095382873 11.147172382160914 10
      vertex 10.036959095382873 -11.147172382160914 10
      vertex 12.135254915624213 -8.816778784387097 10
    endloop
  endfacet
  facet normal 0 0 1
    outer loop
      vertex 7.5 12.990381056766578 10
      vertex 10.036959095382873 -11.147172382160914 10
      vertex 10.036959095382873 11.147172382160914 10
    endloop
  endfacet
  facet normal 0 0 1
    outer loop
      vertex 7.5 12.990381056766578 10
      vertex 7.5 -12.990381056766578 10
      vertex 10.036959095382873 -11.147172382160914 10
    endloop
  endfacet
  facet normal 0 0 1
    outer loop
      vertex 4.635254915624211 14.265847744427303 10
      vertex 7.5 -12.990381056766578 10
      vertex 7.5 12.990381056766578 10
    endloop
  endfacet
  facet normal 0 0 1
    outer loop
      vertex 4.635254915624211 14.265847744427303 10
      vertex 4.635254915624211 -14.265847744427303 10
      vertex 7.5 -12.990381056766578 10
    endloop
  endfacet
  facet normal 0 0 1
    outer loop
      vertex 1.567926949014802 14.9178284305241 10
      vertex 4.635254915624211 -14.265847744427303 10
      vertex 4.635254915624211 14.265847744427303 10
    endloop
  endfacet
  facet normal 0 0 1
    outer loop
      vertex 1.567926949014802 14.9178284305241 10
      vertex 1.567926949014802 -14.9178284305241 10
      vertex 4.635254915624211 -14.265847744427303 10
    endloop
  endfacet
  facet normal 0 0 1
    outer loop
      vertex -1.567926949014802 14.9178284305241 10
      vertex 1.567926949014802 -14.9178284305241 10
      vertex 1.567926949014802 14.9178284305241 10
    endloop
  endfacet
  facet normal 0 0 1
    outer loop
      vertex -1.567926949014802 14.9178284305241 10
      vertex -1.567926949014802 -14.9178284305241 10
      vertex 1.567926949014802 -14.9178284305241 10
    endloop
  endfacet
  facet normal 0 0 1
    outer loop
      vertex -4.635254915624211 14.265847744427303 10
      vertex -1.567926949014802 -14.9178284305241 10
      vertex -1.567926949014802 14.9178284305241 10
    endloop
  endfacet
  facet normal 0 0 1
    outer loop
      vertex -4.635254915624211 14.265847744427303 10
      vertex -4.635254915624211 -14.265847744427303 10
      vertex -1.567926949014802 -14.9178284305241 10
    endloop
  endfacet
  facet normal 0 0 1
    outer loop
      vertex -7.5 12.990381056766578 10
      vertex -4.635254915624211 -14.265847744427303 10
      vertex -4.635254915624211 14.265847744427303 10
    endloop
  endfacet
  facet normal 0 0 1
    outer loop
      vertex -7.5 12.990381056766578 10
      vertex -7.5 -12.990381056766578 10
      vertex -4.635254915624211 -14.265847744427303 10
    endloop
  endfacet
  facet normal 0 0 1
    outer loop
      vertex -10.036959095382873 11.147172382160914 10
      vertex -7.5 -12.990381056766578 10
      vertex -7.5 12.990381056766578 10
    endloop
  endfacet
  facet normal 0 0 1
    outer loop
      vertex -10.036959095382873 11.147172382160914 10
      vertex -10.036959095382873 -11.147172382160914 10
      vertex -7.5 -12.990381056766578 10
    endloop
  endfacet
  facet normal 0 0 1
    outer loop
      vertex -12.135254915624213 8.816778784387097 10
      vertex -10.036959095382873 -11.147172382160914 10
      vertex -10.036959095382873 11.147172382160914 10
    endloop
  endfacet
  facet normal 0 0 1
    outer loop
      vertex -12.135254915624213 8.816778784387097 10
      vertex -12.135254915624213 -8.816778784387097 10
      vertex -10.036959095382873 -11.147172382160914 10
    endloop
  endfacet
  facet normal 0 0 1
    outer loop
      vertex -13.703181864639014 6.101049646137003 10
      vertex -12.135254915624213 -8.816778784387097 10
      vertex -12.135254915624213 8.816778784387097 10
    endloop
  endfacet
  facet normal 0 0 1
    outer loop
      vertex -13.703181864639014 6.101049646137003 10
      vertex -13.703181864639014 -6.101049646137003 10
      vertex -12.135254915624213 -8.816778784387097 10
    endloop
  endfacet
  facet normal 0 0 1
    outer loop
      vertex -14.672214011007085 3.1186753622663903 10
      vertex -13.703181864639014 -6.101049646137003 10
      vertex -13.703181864639014 6.101049646137003 10
    endloop
  endfacet
  facet normal 0 0 1
    outer loop
      vertex -14.672214011007085 3.1186753622663903 10
      vertex -14.672214011007085 -3.1186753622663903 10
      vertex -13.703181864639014 -6.101049646137003 10
    endloop
  endfacet
  facet normal 0 0 1
    outer loop
      vertex -14.672214011007085 -3.1186753622663903 10
      vertex -14.672214011007085 3.1186753622663903 10
      vertex -15 0 10
    endloop
  endfacet
endsolid OpenSCAD_Model
