solid OpenSCAD_Model
  facet normal 0.678598344545847 0.28108463771482023 -0.678598344545847
    outer loop
      vertex 5 0 -5
      vertex 10.606601717798213 10.606601717798213 5
      vertex 15 0 5
    endloop
  endfacet
  facet normal 0.6785983445458471 0.28108463771482023 -0.678598344545847
    outer loop
      vertex 10.606601717798213 10.606601717798213 5
      vertex 5 0 -5
      vertex 3.5355339059327378 3.5355339059327378 -5
    endloop
  endfacet
  facet normal 0.28108463771482023 0.6785983445458471 -0.6785983445458471
    outer loop
      vertex 0 5 -5
      vertex 10.606601717798213 10.606601717798213 5
      vertex 3.5355339059327378 3.5355339059327378 -5
    endloop
  endfacet
  facet normal 0.28108463771482023 0.678598344545847 -0.678598344545847
    outer loop
      vertex 10.606601717798213 10.606601717798213 5
      vertex 0 5 -5
      vertex 0 15 5
    endloop
  endfacet
  facet normal -0.28108463771482023 0.6785983445458471 -0.6785983445458471
    outer loop
      vertex -3.5355339059327378 3.5355339059327378 -5
      vertex 0 15 5
      vertex 0 5 -5
    endloop
  endfacet
  facet normal -0.28108463771482023 0.678598344545847 -0.678598344545847
    outer loop
      vertex 0 15 5
      vertex -3.5355339059327378 3.5355339059327378 -5
      vertex -10.606601717798213 10.606601717798213 5
    endloop
  endfacet
  facet normal -0.6785983445458471 0.28108463771482023 -0.6785983445458471
    outer loop
      vertex -15 0 5
      vertex -3.5355339059327378 3.5355339059327378 -5
      vertex -5 0 -5
    endloop
  endfacet
  facet normal -0.678598344545847 0.28108463771482023 -0.678598344545847
    outer loop
      vertex -3.5355339059327378 3.5355339059327378 -5
      vertex -15 0 5
      vertex -10.606601717798213 10.606601717798213 5
    endloop
  endfacet
  facet normal -0.6785983445458471 -0.28108463771482023 -0.6785983445458471
    outer loop
      vertex -3.5355339059327378 -3.5355339059327378 -5
      vertex -15 0 5
      vertex -5 0 -5
    endloop
  endfacet
  facet normal -0.678598344545847 -0.28108463771482023 -0.678598344545847
    outer loop
      vertex -15 0 5
      vertex -3.5355339059327378 -3.5355339059327378 -5
      vertex -10.606601717798213 -10.606601717798213 5
    endloop
  endfacet
  facet normal -0.28108463771482023 -0.678598344545847 -0.678598344545847
    outer loop
      vertex -3.5355339059327378 -3.5355339059327378 -5
      vertex 0 -15 5
      vertex -10.606601717798213 -10.606601717798213 5
    endloop
  endfacet
  facet normal -0.28108463771482023 -0.6785983445458471 -0.6785983445458471
    outer loop
      vertex 0 -15 5
      vertex -3.5355339059327378 -3.5355339059327378 -5
      vertex 0 -5 -5
    endloop
  endfacet
  facet normal 0.28108463771482023 -0.6785983445458471 -0.6785983445458471
    outer loop
      vertex 3.5355339059327378 -3.5355339059327378 -5
      vertex 0 -15 5
      vertex 0 -5 -5
    endloop
  endfacet
  facet normal 0.28108463771482023 -0.678598344545847 -0.678598344545847
    outer loop
      vertex 0 -15 5
      vertex 3.5355339059327378 -3.5355339059327378 -5
      vertex 10.606601717798213 -10.606601717798213 5
    endloop
  endfacet
  facet normal 0.678598344545847 -0.28108463771482023 -0.678598344545847
    outer loop
      vertex 10.606601717798213 -10.606601717798213 5
      vertex 5 0 -5
      vertex 15 0 5
    endloop
  endfacet
  facet normal 0.6785983445458471 -0.28108463771482023 -0.6785983445458471
    outer loop
      vertex 5 0 -5
      vertex 10.606601717798213 -10.606601717798213 5
      vertex 3.5355339059327378 -3.5355339059327378 -5
    endloop
  endfacet
  facet normal 0 0 -1
    outer loop
      vertex 3.5355339059327378 -3.5355339059327378 -5
      vertex 3.5355339059327378 3.5355339059327378 -5
      vertex 5 0 -5
    endloop
  endfacet
  facet normal 0 0 -1
    outer loop
      vertex 0 -5 -5
      vertex 3.5355339059327378 3.5355339059327378 -5
      vertex 3.5355339059327378 -3.5355339059327378 -5
    endloop
  endfacet
  facet normal 0 0 -1
    outer loop
      vertex 0 -5 -5
      vertex 0 5 -5
      vertex 3.5355339059327378 3.5355339059327378 -5
    endloop
  endfacet
  facet normal 0 0 -1
    outer loop
      vertex -3.5355339059327378 -3.5355339059327378 -5
      vertex 0 5 -5
      vertex 0 -5 -5
    endloop
  endfacet
  facet normal 0 0 -1
    outer loop
      vertex -3.5355339059327378 -3.5355339059327378 -5
      vertex -3.5355339059327378 3.5355339059327378 -5
      vertex 0 5 -5
    endloop
  endfacet
  facet normal 0 0 -1
    outer loop
      vertex -3.5355339059327378 3.5355339059327378 -5
      vertex -3.5355339059327378 -3.5355339059327378 -5
      vertex -5 0 -5
    endloop
  endfacet
  facet normal 0 0 1
    outer loop
      vertex 10.606601717798213 10.606601717798213 5
      vertex 10.606601717798213 -10.606601717798213 5
      vertex 15 0 5
    endloop
  endfacet
  facet normal 0 0 1
    outer loop
      vertex 0 15 5
      vertex 10.606601717798213 -10.606601717798213 5
      vertex 10.606601717798213 10.606601717798213 5
    endloop
  endfacet
  facet normal 0 0 1
    outer loop
      vertex 0 15 5
      vertex 0 -15 5
      vertex 10.606601717798213 -10.606601717798213 5
    endloop
  endfacet
  facet normal 0 0 1
    outer loop
      vertex -10.606601717798213 10.606601717798213 5
      vertex 0 -15 5
      vertex 0 15 5
    endloop
  endfacet
  facet normal 0 0 1
    outer loop
      vertex -10.606601717798213 10.606601717798213 5
      vertex -10.606601717798213 -10.606601717798213 5
      vertex 0 -15 5
    endloop
  endfacet
  facet normal 0 0 1
    outer loop
      vertex -10.606601717798213 -10.606601717798213 5
      vertex -10.606601717798213 10.606601717798213 5
      vertex -15 0 5
    endloop
  endfacet
endsolid OpenSCAD_Model
