solid OpenSCAD_Model
  facet normal -1 0 0
    outer loop
      vertex 0 10 0
      vertex 0 -10 0
      vertex 0 -10 60
    endloop
  endfacet
  facet normal -1 0 0
    outer loop
      vertex 0 10 60
      vertex 0 10 0
      vertex 0 -10 60
    endloop
  endfacet
  facet normal 0 0 1
    outer loop
      vertex 60 10 60
      vertex 0 -10 60
      vertex 60 -10 60
    endloop
  endfacet
  facet normal 0 0 1
    outer loop
      vertex 0 10 60
      vertex 0 -10 60
      vertex 60 10 60
    endloop
  endfacet
  facet normal 0.7071067811865475 0 -0.7071067811865475
    outer loop
      vertex 60 -10 60
      vertex 0 10 0
      vertex 60 10 60
    endloop
  endfacet
  facet normal 0.7071067811865475 0 -0.7071067811865475
    outer loop
      vertex 0 -10 0
      vertex 0 10 0
      vertex 60 -10 60
    endloop
  endfacet
  facet normal 1 0 0
    outer loop
      vertex 10 -10 30
      vertex 10 10 30
      vertex 10 -10 50
    endloop
  endfacet
  facet normal 1 0 0
    outer loop
      vertex 10 10 30
      vertex 10 10 50
      vertex 10 -10 50
    endloop
  endfacet
  facet normal 0 0 -1
    outer loop
      vertex 30 10 50
      vertex 30 -10 50
      vertex 10 -10 50
    endloop
  endfacet
  facet normal 0 0 -1
    outer loop
      vertex 10 10 50
      vertex 30 10 50
      vertex 10 -10 50
    endloop
  endfacet
  facet normal -0.7071067811865475 0 0.7071067811865475
    outer loop
      vertex 30 10 50
      vertex 10 10 30
      vertex 30 -10 50
    endloop
  endfacet
  facet normal -0.7071067811865475 0 0.7071067811865475
    outer loop
      vertex 10 10 30
      vertex 10 -10 30
      vertex 30 -10 50
    endloop
  endfacet
  facet normal 0 -1 0
    outer loop
      vertex 10 -10 30
      vertex 0 -10 60
      vertex 0 -10 0
    endloop
  endfacet
  facet normal 0 -1 0
    outer loop
      vertex 10 -10 50
      vertex 0 -10 60
      vertex 10 -10 30
    endloop
  endfacet
  facet normal 0 -1 0
    outer loop
      vertex 0 -10 60
      vertex 10 -10 50
      vertex 30 -10 50
    endloop
  endfacet
  facet normal 0 -1 0
    outer loop
      vertex 30 -10 50
      vertex 60 -10 60
      vertex 0 -10 60
    endloop
  endfacet
  facet normal 0 -1 0
    outer loop
      vertex 30 -10 50
      vertex 10 -10 30
      vertex 0 -10 0
    endloop
  endfacet
  facet normal 0 -1 0
    outer loop
      vertex 60 -10 60
      vertex 30 -10 50
      vertex 0 -10 0
    endloop
  endfacet
  facet normal 0 1 0
    outer loop
      vertex 30 10 50
      vertex 10 10 50
      vertex 0 10 60
    endloop
  endfacet
  facet normal 0 1 0
    outer loop
      vertex 60 10 60
      vertex 30 10 50
      vertex 0 10 60
    endloop
  endfacet
  facet normal 0 1 0
    outer loop
      vertex 10 10 50
      vertex 10 10 30
      vertex 0 10 60
    endloop
  endfacet
  facet normal 0 1 0
    outer loop
      vertex 0 10 60
      vertex 10 10 30
      vertex 0 10 0
    endloop
  endfacet
  facet normal 0 1 0
    outer loop
      vertex 30 10 50
      vertex 0 10 0
      vertex 10 10 30
    endloop
  endfacet
  facet normal 0 1 0
    outer loop
      vertex 0 10 0
      vertex 30 10 50
      vertex 60 10 60
    endloop
  endfacet
endsolid OpenSCAD_Model
